<svg xmlns="http://www.w3.org/2000/svg" xmlns:xlink="http://www.w3.org/1999/xlink" fill="none" version="1.1" width="48" height="48" viewBox="0 0 48 48"><defs><clipPath id="master_svg0_279_662"><rect x="9.600000381469727" y="9.600000381469727" width="28.80000114440918" height="28.80000114440918" rx="0"/></clipPath></defs><g><g><rect x="0" y="0" width="48" height="48" rx="16.000001907348633" fill="#FFFFFF" fill-opacity="1"/><rect x="0.6000000238418579" y="0.6000000238418579" width="46.799999952316284" height="46.799999952316284" rx="15.400001883506775" fill-opacity="0" stroke-opacity="1" stroke="#EEEEEE" fill="none" stroke-width="1.2000000476837158"/></g><g clip-path="url(#master_svg0_279_662)"><g><g><path d="M11.637170381469726,13.595908662719726L23.841100381469726,10.024912662719727Q26.474400381469728,9.254390662719727,27.244900381469726,11.887668662719726L31.846000381469725,27.612088662719728Q32.61660038146972,30.245388662719726,29.983300381469725,31.01588866271973L17.779340381469726,34.58688866271973Q15.146060381469727,35.35738866271973,14.375540381469726,32.72408866271972L9.774424381469727,16.999708662719726Q9.003902381469727,14.366428662719727,11.637170381469726,13.595908662719726Z" fill="#005BFF" fill-opacity="0.30000001192092896"/></g><g><path d="M21.741972490844727,16.27867317199707L34.48051249084473,16.27867317199707Q38.40011249084473,16.27867317199707,38.40011249084473,20.19823317199707L38.40011249084473,34.23027317199707Q38.40011249084473,38.14977317199707,34.48051249084473,38.14977317199707L21.741972490844727,38.14977317199707Q17.822412490844727,38.14977317199707,17.822412490844727,34.23027317199707L17.822412490844727,20.19823317199707Q17.822412490844727,16.27867263223207,21.741972490844727,16.27867317199707Z" fill="#005BFF" fill-opacity="1"/></g><g><path d="M24.720780381469726,21.609270095825195L27.268490381469725,21.609270095825195Q28.32677038146973,21.609270095825195,28.32677038146973,22.667550095825195Q28.32677038146973,23.725830095825195,27.268490381469725,23.725830095825195L24.720780381469726,23.725830095825195Q23.662500381469727,23.725830095825195,23.662500381469727,22.667550095825195Q23.662500381469727,21.609270095825195,24.720780381469726,21.609270095825195Z" fill="#FFFFFF" fill-opacity="1"/></g><g><path d="M24.720780381469726,26.234209060668945L31.501620381469728,26.234209060668945Q32.559900381469724,26.234209060668945,32.559900381469724,27.292489060668945Q32.559900381469724,28.350769060668945,31.501620381469728,28.350769060668945L24.720780381469726,28.350769060668945Q23.662500381469727,28.350769060668945,23.662500381469727,27.292489060668945Q23.662500381469727,26.234209060668945,24.720780381469726,26.234209060668945Z" fill="#FFFFFF" fill-opacity="1"/></g><g><path d="M24.720780381469726,30.663179397583008L31.501620381469728,30.663179397583008Q32.559900381469724,30.663179397583008,32.559900381469724,31.721459397583008Q32.559900381469724,32.77973939758301,31.501620381469728,32.77973939758301L24.720780381469726,32.77973939758301Q23.662500381469727,32.77973939758301,23.662500381469727,31.721459397583008Q23.662500381469727,30.663179397583008,24.720780381469726,30.663179397583008Z" fill="#FFFFFF" fill-opacity="1"/></g></g></g></g></svg>